<?xml version="1.0" encoding="UTF-8"?>
<!DOCTYPE svg PUBLIC "-//W3C//DTD SVG 1.1//EN" "http://www.w3.org/Graphics/SVG/1.1/DTD/svg11.dtd">
<!-- Creator: CorelDRAW -->
<svg xmlns="http://www.w3.org/2000/svg" xml:space="preserve" width="7.50245in" height="6.10633in" version="1.1" style="shape-rendering:geometricPrecision; text-rendering:geometricPrecision; image-rendering:optimizeQuality; fill-rule:evenodd; clip-rule:evenodd"
viewBox="0 0 7497.88 6102.61"
 xmlns:xlink="http://www.w3.org/1999/xlink"
 xmlns:xodm="http://www.corel.com/coreldraw/odm/2003">
 <defs>
  <style type="text/css">
   <![CDATA[
    .fil1 {fill:#C1AA70}
    .fil0 {fill:#FEFEFE;fill-rule:nonzero}
    .fil2 {fill:#C1AA70;fill-rule:nonzero}
   ]]>
  </style>
 </defs>
 <g id="Layer_x0020_1">
  <metadata id="CorelCorpID_0Corel-Layer"/>
  <g id="_2730714863344">
   <g>
    <path class="fil0" d="M2507.66 2595.99c-20.21,30.34 -57.39,85.42 -91.46,96.15l-3.09 -8.09c39.02,-66.59 149.3,-371.68 157.97,-380.41l18 25.19c25.22,-64.28 0.92,-596.11 6.33,-602.74 113.11,-133.82 150.96,-319 227.42,-474.83 49.14,-100.14 30.99,-73.02 13.5,-163.73 14.49,-26.85 5.57,-18.69 33.53,-30.72 30.25,9.88 20.77,2.23 36.62,27.73 -10.83,9.75 -18.11,16.75 -28.21,27.26 -5.4,78.98 202.27,591.25 258.52,662.39l1.13 331.9c-51.87,-15.31 -146.04,-74.41 -204.61,-100.47 -91.46,17.92 -213.19,36.47 -299.32,66.1 30.58,13.71 250.9,-37.26 300.79,-44.74 45.54,21.22 160.41,81.06 198.77,93.27 0.17,36.6 -1.53,111.92 3.19,145.2l0 0c-12.87,48.66 -25.76,101.75 -41.31,149.26l-5.09 8.72 0 0 0 -0 -0.53 -0.88 0 -0c-0.17,-0.31 -0.34,-0.63 -0.5,-0.97l0 -0c-0.16,-0.33 -0.31,-0.68 -0.46,-1.05l0 -0 -0.43 -1.13 0 -0 -0.4 -1.2c-0.26,-0.83 -0.49,-1.71 -0.71,-2.64l-0.31 -1.42 0 -0 -0.29 -1.49 0 -0 -0.26 -1.56 0 -0 -0.24 -1.62 -0.21 -1.69 0 -0 -0.19 -1.75 -0 0 -0.17 -1.81 -0 0c-0.16,-1.84 -0.28,-3.76 -0.39,-5.76l-0 0 -0.09 -2.03 -0 0 -0.08 -2.07c-0.1,-2.8 -0.17,-5.72 -0.21,-8.74l-0 0 -0.02 -2.29 -0 0 -0.02 -2.32 -0 0 -0.01 -2.36 -0 0 -0 -2.39 -0 0 0 -2.42 -0 0 0 -2.45 0 -10.03 -0 0 0 -2.56 -0 0 -0 -2.58 -0 0 -0.01 -2.59 -0 0 -0.02 -2.6 -0 0 -0.03 -2.61 -0 0 -0.03 -2.62 -0 0 -0.05 -2.63 -0 0 -0.06 -2.63 -0 0 -0.07 -2.63 -0 0 -0.08 -2.63 -0 0 -0.1 -2.63 -0 0 -0.11 -2.62 -0 0 -0.13 -2.62 -0 0 -0.15 -2.61 -0 0 -0.17 -2.6 -0 0 -0.19 -2.59 -0 0 -0.21 -2.57 -0 0 -0.24 -2.56 -0 0 -0.26 -2.54 -0 0 -0.29 -2.52 -0 0 -0.31 -2.5 -0 0 -0.34 -2.47 -0 0 -0.37 -2.45 -0 0 -0.4 -2.42 -0 0 -0.43 -2.39 -0 0 -0.46 -2.35 -0 0 -0.5 -2.32 -0 0 -0.53 -2.28 -0 0 -0.57 -2.25 -0 0 -0.61 -2.21 -0 0 -0.65 -2.16 -0 0 -18.4 -5.52 -0 0 -30.93 -6.46 0 0 -0 0 -15.06 -19.28c-30.91,20.92 -20.57,208.62 -5.97,239.45l46.22 2.33c0.06,2.16 0.07,4.25 0.06,6.29 -0.01,1.02 -0.03,2.02 -0.06,3.01l-0 0 -0.11 2.93 -0 0c-0.05,0.96 -0.1,1.91 -0.17,2.84l-0 0c-0.07,0.93 -0.14,1.85 -0.22,2.76l-0 0 -0.28 2.68 -0 0c-0.1,0.88 -0.21,1.75 -0.33,2.61l-0 0 -0.38 2.54 -0 0 -0.42 2.46 -0 0 -0.47 2.4 -0 0 -0.51 2.33 -0 0 -0.55 2.27 -0 0 -0.6 2.21 -0 0 -0.63 2.15 -0 0c-0.22,0.71 -0.44,1.41 -0.67,2.1l-0 0 -0.7 2.04 -0 0 -0.73 1.99 -0 0 -0.76 1.94 -0 0 -0.79 1.9 -0 0 -0.82 1.85 -0 0 -0.84 1.81 -0 0 -0.87 1.77 -0 0 -0.89 1.74 -0 0 -0.9 1.7 -0 0 -0.92 1.68 -0 0 -0.94 1.64 -0 0 -0.95 1.62 -0 0 -0.96 1.6 -0 0 -0.97 1.57 -0 0 -0.98 1.55 -0 0 -0.98 1.54 -0 0 -0.99 1.53 -0 0 -0.99 1.51 -0 0 -0.98 1.51 -0 0 -0.99 1.5 -0 0 -0.98 1.5 -0 0 -0.98 1.5 -0 0 -0.96 1.5 -0 0 -0.96 1.5 -0 0 -0.94 1.51 -0 0 -0.93 1.51 -0 0 -0.92 1.53 -0 0 -0.9 1.54 -0 0 -0.88 1.55 -0 0 -0.86 1.57 -0 0 -0.84 1.59 -0 0 -0.81 1.62 -0 0 -0.79 1.64 -0 0 -0.76 1.67 -0 0 -0.73 1.7 -0 0 -0.69 1.74 -0 0 -0.66 1.77 -0 0 -0.63 1.81 -0 0 -0.59 1.85 -0 0 -0.54 1.89 -0 0 -0.51 1.94 -0 0 -0.46 1.99 -0 0 -0.41 2.04 -0 0 -0.37 2.09 -0 0 -0.32 2.14 -0 0 -0.27 2.21 -0 0 -0.21 2.26 -0 0 -0.16 2.33 -0 0 -0.38 6.86 0 0 -0.36 6.87 -0 0 -0.35 6.89 -0 0 -0.33 6.91 0 0 -0.11 2.49c49.36,-88.97 67.62,-126.26 104.94,-223.41l-0 -0 1.05 -2.98 -1.05 2.98c21.9,-62.13 57.04,-157.09 87.18,-216.84l1.43 -2.82 0 0 -1.43 2.81 1.43 -2.82c43.78,115.48 107.86,268.64 134.26,389.3 2.87,13.13 24.35,63.06 30.48,77.39 -9.84,90.94 -3.55,321.04 -3.5,423.52 -31.87,-11.85 -70.79,-20.99 -104.18,-29.76 0.54,-86.91 -22,-388.13 14.89,-441.9 7.08,-10.32 4.04,-4.45 9.74,-16.06 3.29,-6.65 6.4,-13.42 9.62,-20.1l-36.99 17.24c-71.25,-11.09 -81.65,-27.75 -132.63,-79.49 -34.89,46.25 -74.83,85.1 -115.39,126.16l-0.06 1.2 -0 0 -0.29 6.93 -0 0 -0.28 6.94 -0 0 -0.26 6.96 -0 0 -0.24 6.96 -0 0 -0.23 6.98 0 0 -0.22 6.99 -0.2 7 -0 0 -0.18 7.01 0 0 -0.17 7.02 0 0 -0.16 7.03 0 0 -0.15 7.03 0 0 -0.13 7.04 0 0 -0.12 7.05 -0 0 -0.11 7.05 -0 0 -0.09 7.06 0 0 -0.08 7.07 -0 0 -0.07 7.07 -0 0 -0.06 7.08 -0 0 -0.05 7.08 -0 0 -0.04 7.09 -0 0 -0.03 7.09 0 0 -0.02 7.09 0 0 -0.01 7.09 -0 0 -0 7.09 0 0 0.01 14.2 0 0 0.02 7.1 0.02 7.1 0 0 0.03 7.1 0 0 0.13 21.29 0 0 0.18 21.27 0 0 0.14 14.16 0 0 0.07 7.07 0 0 0.08 7.07 0.17 14.12 0 0 0.09 7.05 0 0 0.09 7.04 0 0 0.09 7.04 0 0 0.19 14.04 0 0 0.09 7.01 0 0 0.09 7 0 0 0.09 6.99 0 0 0.09 6.98 0 0 0.09 6.96 0 0 0.09 6.96 0 0 0.09 6.94 0 0 0.09 6.93 0 0 0.08 6.92 0 0 0.08 6.9 0 0 0.07 6.89 0 0 0.07 6.88 0 0 0.07 6.86c-1.6,-0.12 -3.27,-0.23 -5.01,-0.34l-0 0c-1.74,-0.11 -3.55,-0.2 -5.43,-0.29l-0 0c-1.88,-0.09 -3.82,-0.17 -5.83,-0.24l-0 0 -6.22 -0.19 -0 0 -6.59 -0.15 -0 0 -6.95 -0.1 -0 0 -7.3 -0.06 -0 0 -7.63 -0.01 -0 0 -7.95 0.03 -0 0 -8.25 0.07 -0 0 -8.55 0.12 -0 0 -8.82 0.16 -0 0 -9.09 0.2 -0 0 -9.33 0.24 -0 0 -9.57 0.28 -0 0 -9.79 0.33 -10 0.36 -0 0 -10.19 0.4 -0 0 -10.37 0.44 -0 0 -10.54 0.48 -0 0 -10.69 0.51 -0 0 -10.83 0.55 -0 0 -10.95 0.58 -0 0 -11.06 0.61 -0 0 -11.16 0.65 -0 0 -11.25 0.68 -0 0 -11.31 0.72 -0 0 -11.37 0.75 -11.41 0.78 -11.44 0.81 -11.45 0.84 -0 0 -11.45 0.87 -0 0 -11.44 0.9 -0 0 -11.41 0.92 -0 0 -11.37 0.95 -0 0 -11.31 0.98 -0 0 -11.24 1.01 -0 0 -11.16 1.03 -0 0 -11.06 1.06 0 0 -10.95 1.08 -0 0 -10.83 1.11 0 0 -10.69 1.13 0 0 -10.54 1.15 -0 0 -10.37 1.17 -0 0 -10.19 1.19 0 0 -10 1.22 0 0 -9.79 1.24 -9.57 1.26 -0 0 -9.33 1.27 -0 0 -9.08 1.29 -0 0 -8.82 1.31 0 0 -8.54 1.33 -0 0c-2.8,0.44 -5.55,0.89 -8.25,1.34l-0 0c-2.7,0.45 -5.34,0.9 -7.94,1.35l-0 0c-2.6,0.46 -5.14,0.91 -7.63,1.37l0 0c-2.49,0.46 -4.91,0.92 -7.29,1.38l-0 0c-2.37,0.46 -4.69,0.92 -6.94,1.4l-0 0c-2.25,0.47 -4.45,0.94 -6.58,1.41l-0 0c-2.13,0.47 -4.2,0.94 -6.21,1.42l0 0c-2.01,0.48 -3.95,0.95 -5.82,1.44l0 0c-1.87,0.48 -3.68,0.96 -5.42,1.44l0 0c-1.74,0.48 -3.41,0.97 -5,1.46l-0 0c-1.6,0.49 -3.12,0.98 -4.57,1.47l-0 0c-1.45,0.49 -2.83,0.98 -4.13,1.48l0 0 -0.15 14.1 0.15 -14.1c-26.54,-36.62 -13.67,-339.16 -12.98,-402.12 48.58,-35.27 58.94,-46.96 96.32,-96.11 22.47,24.94 31.35,37.45 62.12,52.89 -9.66,-28.73 -41.35,-54.55 -64.41,-77.11zm539.78 -196.99l0.07 6.58 -0.04 -3.29 0 -0 -0.03 -3.29zm1.12 36.45l0 0 0 0 -0 -0zm0.18 3.35l0 0 0 0 0.2 3.37 -0 -0.01 -0.19 -3.36 -0 -0.01zm0.4 6.74l0 0 0 0 0.22 3.38 0 0.01 -0.22 -3.39 -0 -0zm0.45 6.78l0 0 0 0 0 0 -0 -0.01zm1.03 13.7l0 0 0 0 0 0 -0 -0.01zm-293.36 709.65c-18.09,2.59 -33.13,15.21 -38.87,32.55 -5.73,17.35 -1.15,36.44 11.83,49.29 12.96,12.87 32.11,17.27 49.4,11.38 23.53,-8.01 37.08,-32.63 31.29,-56.8 -5.8,-24.17 -29.05,-39.95 -53.65,-36.42zm-255.81 398.38c-30.81,47.11 -35.46,99.77 19,128.73 22.15,-48.05 30.91,-98.29 -19,-128.73zm618.24 -7.28c-37.27,44.89 -47.25,104.68 6.45,140.98 34.49,-42.22 47.32,-108.35 -6.45,-140.98zm877.7 -287.49c-20.21,43.17 -33.38,226.5 18.96,250.61 8.79,-56.23 21.96,-211.11 -18.96,-250.61zm-84.81 -11.88c-14.75,50.26 -17.53,180.39 -4.01,234.91 2.77,11.2 17.76,15.07 28.23,19.53 4.23,-54.48 26.03,-228.67 -24.22,-254.44zm-90.57 -18.56c-7.83,50.79 -25.76,215.14 2.64,255.56l29.41 10.91c2.22,-57.8 15.17,-216.15 -11.69,-257.08l-20.36 -9.4zm-87.15 -19.64c-28.71,46.14 -20.63,189.3 -14.99,248.07 2.07,21.49 16.11,26.58 31.41,36.05 22.28,-38.45 32.12,-256.23 -16.42,-284.12zm-112.71 -17.98c-13.34,53.93 -23.68,231.93 2.42,280.53l35.14 12.87c3.21,-62.97 17.84,-234.52 -12.37,-280.2l-25.19 -13.19zm-863.18 169.33c-38.61,28.58 -57.98,44.6 -62.27,96.7 -6.32,76.85 -21.9,183.29 1.22,255.91 24.91,21.7 72.85,15.75 107.71,14.75l28.18 -3.79c27,-43.51 17.2,-231.41 3.77,-287.71 -10.37,-43.5 -35.92,-64.36 -78.62,-75.87zm1360.02 6.09c0,6.02 -0.01,12.05 -0.04,18.08 0.03,-6.03 0.05,-12.06 0.04,-18.08zm-832.17 95.85c0.23,-55.05 -4.56,-208.48 24.05,-245.96 22.9,60.4 19.2,182.61 19.03,248.97l-43.08 -3.01zm-486.46 -738.42c-23.28,41.82 -28.86,208.87 -1.65,247.35l30.49 11.09c18.17,-42.57 20.11,-185.54 6.68,-233.79 -5.16,-18.54 -17.14,-18.03 -35.52,-24.65zm-321.42 1.07c-1.96,31.1 -8.02,65.6 4.14,92.59l13.99 10.76c1.39,-30.89 6.72,-66.22 -5.18,-93.12l-12.95 -10.22zm7.38 214.83c-13.13,47.1 -17.4,78.24 4.56,124.37 5.44,-38.27 16.95,-90.83 -4.56,-124.37zm36.16 -216.68c-1.93,34.42 -7.24,63.19 6.19,93.99l11.41 9.33c4.27,-31.6 12.63,-64 -1.76,-91.71l-15.84 -11.6zm3.23 216.67c-3.75,34.2 -11.85,69.8 0.11,100.42l20.56 4.22c1.58,-31.84 7.02,-67.27 -7.58,-94.71l-13.09 -9.93zm214.97 -317.76c-11.45,8.55 -17.16,22.77 -14.81,36.86 2.36,14.09 12.38,25.68 25.98,30.04 13.59,4.36 28.48,0.75 38.59,-9.34 14.14,-14.14 14.98,-36.81 1.89,-51.93 -13.08,-15.13 -35.63,-17.59 -51.65,-5.62zm-29.59 109.78c-19.38,47.39 -30.37,207.2 -0.54,247.57l35.06 7.84c11.81,-43.36 18.46,-192.48 -3.62,-236.15 -6.37,-12.6 -16.27,-13.17 -30.9,-19.27zm584.96 -48.55c-2.08,33.49 -8.86,70.14 8.81,97.44l27.86 14.13c3.97,-32.98 13.17,-70.11 -3.27,-97.54 -12.63,-5.95 -19.87,-10.01 -33.4,-14.03zm-163.51 -18.46l-30.06 -2.11c-27.62,33.33 -27.64,77.83 3.61,107.41l26.08 -3.73c18.02,0.08 9.16,1.85 26.55,-8.4 12.06,-36.1 15.27,-65.7 -7,-98.02l-19.19 4.86zm13.54 234.74l-42.17 6.96c-16.84,24.39 -18.39,27.86 -25.08,56.73 8.96,31.26 2.84,27.72 23.38,46.07l40.37 -4.06 15.68 -6.2c9.79,-31.13 11.37,-71.22 -1.01,-101.8l-11.16 2.32zm-387.96 -800.14c-14.84,3.32 -26.65,14.53 -30.72,29.19 -4.08,14.64 0.24,30.36 11.23,40.86 10.99,10.51 26.89,14.1 41.34,9.37 20.9,-6.85 32.73,-28.91 26.9,-50.12 -5.83,-21.21 -27.27,-34.11 -48.75,-29.3zm125.69 418.86c-84.45,11.77 -172.74,21.81 -254.39,45.44l-1.92 7.65c52.86,-1.53 83.88,-5.71 136.31,-14 90.15,-16.71 145.52,-21.17 237.56,-26.81 -44.32,-16.92 -69.21,-22.6 -117.57,-12.28zm-125.72 -966.8c-22.69,33.3 -72.44,102.19 -88.85,135.22l1.92 9.05 -6.9 2.11 0.65 5.39 7.3 -17.2c23.41,-2.4 71.47,-81.41 86.49,-104.09 26.63,22.69 78.02,77.73 111.77,71.37 122.94,-42.11 80.53,58.09 152.99,-21.92l-1.4 -8.19c-16.93,10.73 -33.09,26.89 -52.98,17.84 -97.15,-44.23 -97.85,21.11 -185.65,-64.43 -8.51,-8.32 -16.96,-16.7 -25.33,-25.15zm59.37 196.63c-36.35,44.28 -58.63,163.69 -22.62,204.9l14.52 5.26c32.83,-32.51 26.78,-41.17 28.62,-94.61 1.22,-35.08 2.55,-90.38 -20.52,-115.56zm-100.81 24.76c-27.01,44.14 -25.11,130.76 -14.07,180.38 16.85,19.61 9.59,13.5 42.51,17.7 17.48,-48.04 27.15,-171.49 -28.44,-198.08zm87.23 437.15c-30.61,42.43 -36.05,203.81 -9.6,245.74l30.04 9.33c25.41,-37.73 25.68,-209.27 -0.86,-245.32l-19.57 -9.75zm-96.05 18.88c-22.46,47.65 -32.24,199.04 1.58,239.92l38.7 8.17c4.17,-68.57 33.74,-225.5 -40.28,-248.1zm321.4 -420.72l0 0 -14.67 -24.54 -12.02 2.71c-16.2,40.28 -28.44,169.42 23.57,185l22.64 10.23 12.05 8.79 11.97 -11.08c6.51,-45.61 13.2,-120.08 -5.15,-162.51l-17.14 -4.29 0 -0.01 -21.24 -4.3zm-1566.87 2135.35l173.28 -47.76 48.8 26.58 -48.8 -26.58c175.42,-53.41 363.54,-84.23 544.29,-114.47 -53.99,-75.78 -107.02,-152.26 -159.04,-229.41 112.25,-54.1 227.46,-101.88 345.08,-143.08 -1.53,59.18 -16.86,301.13 11.62,335.83l16.47 -8.4c20.5,-29.95 15.2,-184.69 15.56,-231.39 34.45,0.03 68.91,-0.17 103.37,-0.6 28.21,-0.53 62.24,2.84 78.91,-14.52l-30.98 -7.76c-39.85,-46.43 39.5,-206.47 -51.22,-255.04 -55.05,50.68 -3.23,199.65 -54.98,259.12 -26.78,5.57 -16.17,7.4 -38.54,-5.66 -4.94,-60.96 -15.88,-330.74 10.29,-368 163.26,-18.39 423.73,-53.41 579.7,-44.75 0.31,143.84 -1.08,287.69 -4.16,431.5 121.93,-4.91 243.98,-5.9 365.97,-2.98 -1.26,74.81 -5.26,129.63 12.58,202.65l5.33 -4.21c13.7,-180.18 4.84,-439.33 3.73,-625.34 194.62,-33.87 538.96,74.04 738.94,124.69l-1.82 37.38 -0 0 -9.04 59.77 -0 -0 -13.15 7.79c-1.87,35.06 -4.19,70.11 -6.96,105.12 -1.69,-37.24 -2.69,-77.63 -7.37,-114.33l-11.97 -8.48c-38.5,39.57 -24.76,187.48 3.55,216.18 15.64,-22.95 13.77,-59.77 15.62,-89.52 1.9,31.5 1.14,91.15 19.26,113.78l0 0.02c3.5,58.17 -6.58,141.65 9.95,195.1 21.28,-15.42 4.98,-329.07 17.89,-393.65l-3.55 -0.57c-1.84,-1.73 -3.43,-3.81 -4.81,-6.2 1.38,2.39 2.98,4.47 4.82,6.2l3.55 0.57c40.14,31.51 68.08,53.02 112.09,80.29 -0.52,73.36 -8.82,263.46 12.1,323.33l8.37 4.03c12.95,-92.73 5.62,-247.37 10.7,-349.55 -32.55,-24.07 -65.78,-49.33 -99.15,-72 241.75,-139.76 253.51,-129.91 505.62,-17.75 -84,69.89 -163.09,118.4 -257.9,172.84 115.71,-31.55 171.69,-47.73 276.69,-105.19 166.53,-91.14 319.27,-223.06 499.69,-282.99 159.04,46.72 282.87,119.72 425.37,204.6 -103.9,191.67 -182.5,317.79 -303.48,499.04 255.21,45.82 450.64,88.6 700.92,160.41 -239.63,-13.45 -487.35,-43.49 -726.81,-67.18 -1216.92,-120.47 -2409.56,-76.76 -3624.32,49.39 -70.6,4.64 -150.87,14.33 -222.09,21.18zm2672.68 -629.33c0.36,0.73 0.74,1.44 1.13,2.12 -0.4,-0.68 -0.77,-1.39 -1.13,-2.12zm-244.67 -554.68c30.56,7.18 76.61,29.76 106.74,43.42 1.11,71.64 0.33,144.91 0.36,216.7 -31.52,-28.3 -76.85,-56.16 -112.93,-79.95 -0.51,-58.94 -3.34,-122.33 5.83,-180.17zm-784.03 -1170.13c174.48,-1.27 348.97,-0.66 523.43,1.83 -2.21,226.33 -3.04,452.7 -2.48,679.04 -0.14,99.87 1.98,213.79 -5.01,313.69 -1.68,24.07 -8.92,25.68 -25.87,43.3 -27.26,18.85 -56.89,41.85 -83.86,61.78l0.08 -980.03 -350.29 -1.17 -55.99 -118.46zm407.27 -1103.85l485.43 -0.13 -0.67 731.05c229.03,-4.68 468.86,-1.31 698.9,-2.43 4.88,318.16 8.45,217.38 -94.53,495.26l-604.52 0.2 0.01 731.65c-36.1,15.2 -76.09,29.88 -112.88,44.26l-0.71 -896.23 273.25 -0.2c142.18,0.11 284.37,-0.74 426.55,-2.51l-0.08 -250.86c-233.37,-1.82 -466.77,-2.36 -700.16,-1.64l0.54 -730.19 -259.15 -0.21c1.86,243.07 1.86,486.15 0,729.21l-619.19 0.46 -43.28 -117.9 550.61 -1.19 -0.13 -728.61zm-246.7 2981.35l19.91 -4.54 43.07 3 13.76 8.24 15.94 -6.15c11.74,-36.92 6.02,-317.17 5.71,-377.59l-107.59 -20.82c-0.82,56.72 -11.58,364.89 9.22,397.86zm-241.09 -399.84l218.71 -1.92c0.65,60.67 12.27,376.63 -11.55,403.17 -30.87,3.94 -35.38,3.94 -65.89,-2.11l0 -0c1.49,-63.21 16.43,-224.79 -37.52,-268.82l-16.12 7.68c-40.94,73.54 -28.01,177.36 -24.4,262.01l-0 0c-27.31,10.55 -15.45,8.86 -46.14,4.34 -30.34,-39.53 -17.68,-332.95 -17.1,-404.35zm132.28 397.47c-1.41,-0.24 -2.77,-0.45 -4.11,-0.65 1.33,0.2 2.7,0.41 4.11,0.65zm-37.03 -924.66c4.52,1.76 94.86,61.55 115.35,72.64 12.8,34.88 4.79,358.85 3.37,419.3 -19.72,17.78 -20.2,12.26 -51.8,13.45 -52.04,0.51 -109.24,4.4 -161.62,6.84l1.79 -417.54c41.18,-34.59 57.6,-53.47 92.92,-94.69zm262.62 284.91c357.24,116.74 462.99,115.5 751.29,349.39 -30.48,-0.14 -119.8,-26.55 -152.95,-33.27 -205.13,-41.62 -383.41,-131.8 -592.39,-96.8 0.69,-69.74 4.04,-151.6 -5.95,-219.31zm-288.23 -430.17l0 0 -0 0zm-87.38 653.92l0 0 -0 0z"/>
    <g>
     <g>
      <path class="fil1" d="M5029.19 1759.59c1.29,64.96 -72.26,194.51 -105.09,250.42 -200.18,341.06 -560.86,492.24 -910.76,634.36 -149.01,60.52 -280.19,120.87 -401.16,230.3l-98.12 -32.59 -24.87 -10.05c-4.26,-26.53 19.13,-39.78 40.89,-59.09 133.39,-118.3 299.86,-183.51 467.18,-241.06 485.98,-167.12 776.14,-308.54 1031.93,-772.29zm196.22 -713.25c74.66,276.12 31.4,469.53 -172.08,677.56l85.36 -350.79 -76.46 233.11c-16.27,29.04 -17.88,43.06 -43.2,58.57 -47.87,-226.89 13.57,-475.82 206.37,-618.46l0 0zm-1197.06 1658.13c253.57,-92.5 525.66,-31.1 709.75,166.44 -253.14,113.15 -562.03,75.83 -760.5,-123.5 66.01,3.69 123.05,6.73 188.69,15.71l0.01 -0 0.01 0c86.29,10.87 181.52,29.86 267.92,45.25 -72.11,-32.56 -135.8,-53.11 -214.16,-65.35l-191.72 -38.56zm191.71 38.56c-65.28,-15.05 -125.81,-26.63 -191.71,-38.56l191.71 38.56zm779.32 -761.02c95.4,-176.41 262.38,-255.6 453.59,-279.99 -40.59,153.32 -139.79,284.57 -276.23,365.44 -61.52,36.05 -131.44,66.71 -203.06,72.04l-9.2 -8.98c13.42,-17.21 16.07,-21.32 32.95,-34.8 71.35,-57.7 182.61,-150.18 243.38,-214.2 -80.1,45.82 -194.67,134.65 -265.37,196.03l-12.44 0.36c2.22,-33.99 20.42,-66.4 36.38,-95.9zm-92.8 322.57c137.13,-7.29 177.38,0.25 314.69,25.61 -184.71,243.73 -411.68,311.78 -699.6,218.27l-22.6 -17.09c17.89,-8.94 168.72,-28.75 207.68,-38.89 52.37,-13.65 110.55,-29.34 164.88,-45.74 -120.01,7.48 -219.89,24.54 -343.41,25.78 120.08,-90.82 230.41,-143.8 378.35,-167.94zm-53.25 -866.5c52.46,173.16 72.16,338.5 -16.95,507.57 -13.33,25.28 -56.85,99.42 -82.42,107.34l-2.42 -3.86c5.89,-97.29 29.22,-191.42 27.59,-294.36 -21.86,89.6 -41.75,182.82 -62.53,272.96 -9.21,25.29 -17.34,61.13 -34.77,76.31 -108.78,-229.76 1.49,-497.24 171.49,-665.95zm-321.5 412.69c-3.97,176.28 -31.8,301.71 -162.97,437.51 -24,24.86 -122.65,99.58 -157.68,100.51l-3.72 -3.03c35.26,-97.62 110.66,-191.52 138.94,-265.16 -36.01,11.91 -152,203.49 -165.2,245.11l-28.01 36.25 -12.8 -0.29c-17.74,-67 43.81,-240.02 79.83,-301.61 70.48,-117.9 181.11,-206.41 311.62,-249.3z"/>
     </g>
     <g>
      <path class="fil1" d="M2401.29 1597.86c93.54,136.75 146.81,264.98 121.41,437.96 -6.3,42.93 -43.43,149.55 -74.93,175.5 -7.2,-16.27 -27.42,-292.18 -27.77,-309.71l-19.12 259.27 -11.45 1.71c-117.94,-187.81 -89.61,-378.16 11.85,-564.73l0 0zm-11.04 975.24c-61.58,-15.94 -156.07,-69.15 -208.9,-104.77 60.27,19.3 158.35,55.87 213.09,84.1l-4.19 20.67zm-176.15 -663.12c41.78,123.84 106.32,242.24 184.51,346.67 25.92,34.59 87.68,94.94 96.85,129.46 -10.64,31.98 -3.86,28.95 -26.04,43.15 -34.05,-9.06 -48.18,-33.61 -68.61,-60.03 -112.22,-145.15 -168.4,-286.3 -209.18,-463.09 -10.43,-52.04 -15.06,-84.81 -38.08,-133.45 -136.71,-176.45 -116.25,-426.43 -11.26,-612.36 123.81,170.58 183.83,405.91 70.18,598.21 -14.37,-11.99 -21.92,-54.3 -27.42,-75.03 0.29,-51.78 -15.97,-150.9 -24.54,-204.22 -10.99,65.25 -5.66,176.9 4.32,243.65l5.3 47.64c13.91,40.81 35.58,98.59 43.96,139.4zm233.83 603.2c4.4,6 -2.82,20.24 -5.43,28.36 -22.2,10.62 -23.1,10.58 -48.05,10.89l-4.19 20.67c8.73,9.79 7.61,11.92 12.19,25.51 -8.45,29.22 -1.74,18.67 -27.79,38.98 -186.02,41.28 -361.1,-156.24 -440.94,-302.21 161.54,-11.28 405.11,29.19 514.21,177.8zm-636.09 -791.04c186.05,56.2 393.65,207.32 391.93,421.33l-13.48 0.12c-22.54,-30.55 -149.96,-172.6 -179.02,-185.57l-8.52 1.27c15.77,26.69 153.8,187.3 181.17,220.89l0 0 -0 0 9.51 14.53 -14.46 3.22c-233.23,-82.45 -326.11,-242.56 -367.12,-475.8z"/>
     </g>
     <path class="fil2" d="M3705.48 2.66c301.22,-18.78 669.45,64.14 943.67,184.14 1198.67,524.48 1700.41,2021.71 1119.58,3180.49 -13.85,27.61 -96.93,189.76 -115.68,197.03 13.12,-63.28 90.9,-190.33 116.36,-260.63 85.5,-236.09 145.12,-474.31 162.81,-724.38 43.32,-630.49 -166.34,-1252.25 -582.61,-1727.76 -390.65,-447.74 -903.06,-680.39 -1490.23,-719.83 -183.04,-6.29 -337.18,0.71 -517.03,37.98 -567.7,116.47 -1065.23,455.2 -1381.7,940.71 -378.09,574.04 -488.1,1284.06 -301.45,1945.63 31.48,109.85 70.17,217.49 115.8,322.26 11.09,26.01 66.31,140.25 69.58,155.81l-17.92 -7.51c-36.59,-41.9 -70.19,-121.41 -94.47,-173.37 -139,-290.49 -217.8,-606.1 -231.67,-927.84 -40.61,-861.21 412.79,-1715.29 1164.65,-2136.62 338.46,-189.66 655.25,-267.74 1040.3,-286.13z"/>
     <path class="fil2" d="M3746.56 889.84l-0.22 -4.4c-1.37,-29.45 -2.71,-122.19 15.16,-141.87l-0.62 28.94c9.73,231.65 15.27,452.48 21.79,683.85 115.67,1.71 576.43,1.49 671.24,29.58 -229.23,19.59 -441.4,21.2 -672.05,23.33 -0.49,113.39 3.51,992.49 -24.28,1046.13 -34.04,-84.81 -20.32,-902.78 -25.69,-1045.56 -106.53,-1.5 -566.92,-1.74 -648.68,-30.03 145.79,-23.41 487.25,-20.78 649.62,-25.67 1.92,-168.77 17.13,-406.52 13.73,-564.31z"/>
     <path class="fil2" d="M3746.56 889.84l-0.22 -4.4c-1.37,-29.45 -2.71,-122.19 15.16,-141.87l-0.62 28.94c-2.42,36.8 -3.42,83.05 -14.31,117.33z"/>
    </g>
   </g>
   <path class="fil0" d="M-0 4635.56c0,-131.31 45.26,-242.22 135.79,-332.75 91.34,-91.34 203.48,-137.02 336.42,-137.02 132.93,0 244.67,45.67 335.2,137.02 91.34,90.53 137.01,201.04 137.01,331.53 0,130.49 -45.26,241 -135.79,331.53 -91.34,89.71 -203.89,134.57 -337.64,134.57 -134.57,0 -246.71,-44.85 -336.42,-134.57 -89.71,-89.71 -134.57,-199.81 -134.57,-330.3zm472.21 265.46c74.21,0 136.61,-25.28 187.17,-75.85 50.57,-52.2 75.44,-115.81 74.62,-190.84 -1.63,-78.29 -27.32,-142.31 -77.07,-192.06 -50.56,-51.38 -112.14,-77.07 -184.72,-77.07 -74.22,0 -136.2,25.69 -185.95,77.07 -50.56,52.19 -75.85,116.22 -75.85,192.06 0,75.03 25.28,138.64 75.85,190.84 50.56,50.57 112.55,75.85 185.95,75.85zm882.03 200.63c-71.77,0 -138.44,-14.07 -200.02,-42.21 -61.58,-28.14 -113.16,-68.71 -154.75,-121.72l110.1 -144.36c67.7,79.93 149.66,119.89 245.89,119.89 35.07,0 63.61,-7.54 85.63,-22.63 22.02,-15.09 33.03,-34.86 33.03,-59.33 0,-33.44 -26.1,-61.58 -78.29,-84.41l-80.74 -29.36c-49.75,-18.76 -88.49,-35.47 -116.22,-50.15 -97.05,-53.01 -145.58,-129.27 -145.58,-228.77 0,-78.29 29.77,-143.13 89.3,-194.51 59.54,-51.38 137.02,-77.07 232.44,-77.07 119.89,0 222.24,39.96 307.06,119.89l-100.31 150.47c-26.1,-24.47 -58.11,-44.04 -96.03,-58.72 -37.92,-14.68 -74.01,-22.02 -108.26,-22.02 -33.44,0 -59.74,6.73 -78.91,20.18 -19.17,13.46 -28.75,31.61 -28.75,54.44 0,30.99 24.47,57.5 73.4,79.52l88.08 35.48c54.64,21.2 89.3,35.47 103.98,42.82 108.47,48.93 162.7,125.6 162.7,229.99 0,83.19 -31.8,150.88 -95.42,203.07 -62.8,53.01 -145.58,79.52 -248.34,79.52zm680.18 -15.9l-199.4 0 0 -904.05 141.91 0 341.32 491.78 338.86 -491.78 144.36 0 0 904.05 -201.85 0 0 -478.33 -245.89 351.1 -73.4 0 -245.89 -351.1 0 478.33zm1671.09 0l-234.88 0 -177.38 -315.62 -99.09 0 0 315.62 -201.85 0 0 -904.05 359.66 0c103.57,0 182.68,28.14 237.33,84.41 54.64,54.64 81.97,123.97 81.97,207.97 0,60.35 -14.88,114.18 -44.65,161.48 -29.77,47.3 -73.2,82.78 -130.29,106.43l209.19 343.76zm-354.77 -718.1l-156.59 0 0 223.87 143.13 0c40.78,0 71.97,-10.6 93.58,-31.81 21.61,-21.2 32.42,-48.53 32.42,-81.97 0,-31.81 -9.99,-58.11 -29.97,-78.9 -19.98,-20.8 -47.51,-31.19 -82.58,-31.19zm643.48 718.1l0 -709.54 -255.68 0 0 -194.51 713.21 0 0 194.51 -254.46 0 0 709.54 -203.07 0zm1158.51 -375.57l0 -528.49 198.18 0 0 904.05 -145.58 0 -441.63 -523.59 0 523.59 -199.4 0 0 -904.05 137.02 0 451.41 528.49zm389.02 375.57l0 -904.05 203.07 0 0 904.05 -203.07 0zm809.85 13.46c-132.12,0 -242.63,-42.82 -331.53,-128.45 -88.89,-86.45 -133.34,-197.78 -133.34,-333.97 0,-137.02 45.26,-249.56 135.79,-337.64 91.34,-88.89 201.85,-133.34 331.53,-133.34 79.92,0 154.14,16.51 222.65,49.54 68.51,33.03 123.56,77.68 165.15,133.96l-132.12 134.57c-68.51,-82.37 -150.06,-123.56 -244.67,-123.56 -75.03,0 -138.64,26.1 -190.84,78.29 -52.2,52.2 -78.29,117.85 -78.29,196.96 0,77.48 25.69,141.91 77.07,193.29 51.38,51.38 114.99,77.07 190.84,77.07 97.87,0 181.46,-41.59 250.79,-124.78l135.79 127.23c-42.41,57.91 -99.09,104.19 -170.05,138.85 -70.95,34.66 -147.21,51.99 -228.77,51.99zm1145.05 -13.46l-630.02 0 0 -904.05 631.25 0 0 188.39 -428.17 0 0 167.6 396.37 0 0 187.17 -396.37 0 0 172.49 426.95 0 0 188.4z"/>
   <path class="fil2" d="M1519.09 6102.61c-80.43,0 -147.76,-23.3 -202.02,-69.89 -54.25,-46.59 -81.38,-116.17 -81.38,-208.72l0 -441.38 158.93 0 0 434.68c0,43.4 11.01,76.27 33.03,98.61 22.02,22.34 52.5,33.51 91.44,33.51 37.66,0 67.66,-11.33 90,-33.99 22.34,-22.66 33.51,-55.37 33.51,-98.13l0 -434.68 158.93 0 0 441.38c0,91.91 -26.81,161.48 -80.42,208.72 -52.98,46.59 -120.32,69.89 -202.01,69.89zm639.56 0c-56.17,0 -108.35,-11.01 -156.54,-33.03 -48.19,-22.02 -88.56,-53.77 -121.12,-95.26l86.17 -112.97c52.98,62.55 117.12,93.83 192.44,93.83 27.44,0 49.78,-5.91 67.02,-17.71 17.23,-11.81 25.85,-27.29 25.85,-46.44 0,-26.17 -20.42,-48.19 -61.27,-66.06l-63.19 -22.98c-38.94,-14.68 -69.25,-27.77 -90.96,-39.26 -75.96,-41.49 -113.93,-101.17 -113.93,-179.04 0,-61.28 23.3,-112.02 69.89,-152.23 46.59,-40.22 107.23,-60.32 181.91,-60.32 93.83,0 173.93,31.28 240.31,93.83l-78.51 117.76c-20.42,-19.15 -45.48,-34.47 -75.16,-45.96 -29.68,-11.49 -57.93,-17.23 -84.73,-17.23 -26.17,0 -46.76,5.27 -61.75,15.8 -15,10.53 -22.5,24.74 -22.5,42.61 0,24.25 19.15,45 57.45,62.23l68.94 27.76c42.77,16.6 69.89,27.77 81.38,33.51 84.89,38.3 127.34,98.29 127.34,180 0,65.11 -24.89,118.08 -74.68,158.93 -49.15,41.49 -113.93,62.23 -194.36,62.23zm989.98 -12.45l-194.36 0 -178.08 -269.04 -83.3 100.53 0 168.51 -157.97 0 0 -707.54 157.97 0 0 315.95 247.98 -315.95 191.49 0 -252.76 317.87 269.04 389.67zm-20.11 -352.33c0,-102.76 35.43,-189.57 106.28,-260.42 71.49,-71.49 159.25,-107.23 263.29,-107.23 104.04,0 191.49,35.75 262.33,107.23 71.49,70.85 107.23,157.34 107.23,259.46 0,102.13 -35.42,188.61 -106.27,259.46 -71.49,70.21 -159.57,105.32 -264.25,105.32 -105.31,0 -193.08,-35.1 -263.29,-105.32 -70.21,-70.21 -105.32,-156.38 -105.32,-258.5zm369.57 207.76c58.08,0 106.91,-19.79 146.49,-59.36 39.57,-40.85 59.04,-90.64 58.4,-149.36 -1.27,-61.27 -21.38,-111.38 -60.32,-150.31 -39.57,-40.21 -87.76,-60.32 -144.57,-60.32 -58.09,0 -106.6,20.11 -145.53,60.32 -39.57,40.85 -59.36,90.96 -59.36,150.31 0,58.72 19.79,108.51 59.36,149.36 39.57,39.57 88.08,59.36 145.53,59.36zm479.67 -562.97l270.95 0c86.17,0 150.32,22.98 192.44,68.94 42.77,45.31 64.15,102.12 64.15,170.42 0,67.66 -22.02,123.51 -66.06,167.55 -44.04,44.04 -111.38,66.06 -202.02,66.06l-101.49 0 0 234.57 -157.97 0 0 -707.54zm157.97 330.31l107.23 0c31.28,0 55.85,-8.78 73.72,-26.33 17.87,-17.55 26.81,-39.73 26.81,-66.54 0,-26.17 -8.62,-48.03 -25.85,-65.59 -17.23,-17.55 -39.89,-26.33 -67.98,-26.33l-113.93 0 0 184.79zm975.62 377.23l-511.27 0 0 -707.54 158.93 0 0 556.27 352.33 0 0 151.27zm238.4 11.49c-90,0 -164.68,-28.72 -224.04,-86.17l72.77 -125.42c41.49,39.57 87.44,59.36 137.87,59.36 40.85,0 73.09,-12.77 96.7,-38.3 23.62,-25.53 35.42,-60.32 35.42,-104.36l0 -424.14 157.98 0 0 429.89c0,97.02 -26.17,169.46 -78.51,217.34 -51.7,47.87 -117.76,71.81 -198.19,71.81zm911.47 -11.49l-493.08 0 0 -707.54 494.03 0 0 147.45 -335.1 0 0 131.17 310.2 0 0 146.49 -310.2 0 0 135 334.14 0 0 147.45z"/>
  </g>
 </g>
</svg>
